<?xml version="1.0" encoding="UTF-8"?>
<svg id="Layer_2" data-name="Layer 2" xmlns="http://www.w3.org/2000/svg" viewBox="0 0 47.7 47.7">
  <defs>
    <style>
      .cls-1 {
        fill: #fff;
      }
    </style>
  </defs>
  <g id="Layer_1-2" data-name="Layer 1">
    <path class="cls-1" d="M39.7,0H8C3.58,0,0,3.58,0,8v31.7c0,4.42,3.58,8,8,8h31.7c4.42,0,8-3.58,8-8V8c0-4.42-3.58-8-8-8ZM15.9,24.85h-3.88c-4.32,0-7.82-3.5-7.82-7.82v-1.11h10.66V4.24c6.07,0,10.99,4.92,10.99,10.99h0c0,5.32-4.31,9.63-9.63,9.63h-.33ZM43.5,31.78h-10.66v11.69c-6.07,0-10.99-4.92-10.99-10.99h0c0-5.32,4.31-9.63,9.63-9.63h4.21c4.32,0,7.82,3.5,7.82,7.82v1.11Z"/>
  </g>
</svg>